/* XPM */
static char *rage-small_xpm[] = {
/* columns rows colors chars-per-pixel */
"16 16 99 2",
"q  c #006202",
"C  c #009000",
"G  c #009001",
"^  c #00BE00",
"]  c #008D01",
"/  c #00BB00",
"Q  c #005C02",
"*  c #008701",
"9  c #00B500",
"k  c #008401",
".  c #002200",
"R  c #00B200",
"2  c #008102",
"X  c #005001",
"0  c #00AF00",
"&  c #007E01",
" . c #00DD00",
"P  c #00A900",
"U  c #004701",
"d  c #00A600",
"w  c #001601",
")  c #007502",
"`  c #00D100",
"B  c #001001",
"z  c #00A000",
"   c None",
"3  c #00C800",
"n  c #009700",
"X. c #012700",
"@. c #003500",
"1  c #006601",
"Z  c #009400",
"#  c #015501",
"f  c #006301",
",  c #00C200",
"N  c #006002",
"|  c #008E01",
"(  c #005D02",
"5  c #002C01",
">  c #00BC00",
"~  c #008B01",
"t  c #00B900",
"Y  c #00B300",
".. c #00B000",
"V  c #005102",
"e  c #007F01",
"D  c #004E02",
"a  c #00AD00",
"u  c #001D01",
"O. c #007C02",
"K  c #004B01",
"7  c #00AA00",
"4  c #00AA01",
"L  c #00A700",
"g  c #001701",
":  c #004802",
"=  c #00D500",
"H  c #00A400",
"}  c #007301",
"'  c #00D200",
"F  c #009E00",
"+  c #009E01",
"o. c #003C01",
"v  c #009B00",
"%  c #00C600",
"m  c #009500",
"[  c #003000",
"-  c #00C001",
"$  c #005E01",
"<  c #00BD00",
"i  c #002A01",
"r  c #00BA00",
"+. c #008901",
"8  c #00B700",
"E  c #00B400",
"W  c #00AE00",
"O  c #001B00",
"o  c #004C01",
"s  c #00AB00",
"T  c #00AB01",
"h  c #007A02",
"S  c #004902",
"j  c #00A800",
"@  c #00D600",
"c  c #007402",
"l  c #00A200",
"J  c #009F00",
"_  c #00CD00",
"x  c #009C00",
";  c #003D02",
"{  c #00CA00",
"b  c #009900",
"6  c #003A02",
"I  c #003702",
"A  c #009600",
"p  c #009601",
"!  c #00C400",
"M  c #009300",
"y  c #009301",
/* pixels */
"                                ",
"    . X                 o       ",
"  O + @ #             $ % &     ",
"  * @ = - ;         : > , < 1   ",
"  2 3 3 % 4 5     6 7 8 9 0 q   ",
"  w e r t 8 y u i p a s d f     ",
"    g h s 7 j & k l z x f       ",
"      g c x v b n m M N B       ",
"        V C M Z A n A S         ",
"      D m x F G p H d J K       ",
"    X J L P F I U j Y 9 T o     ",
"  D j R E W :     Q > , ! 8 S   ",
"  ~ > ^ / (         ) _ ` ' ]   ",
"  [ 7 { }             |  ...X.  ",
"    o.O.              u +.@.    ",
"                                "
};
